<svg xmlns="http://www.w3.org/2000/svg" viewBox="0 0 1200 630" width="1200" height="630">
  <defs>
    <radialGradient id="glow" cx="50%" cy="20%" r="80%">
      <stop offset="0%" stop-color="#0F2236"/>
      <stop offset="100%" stop-color="#080C16"/>
    </radialGradient>
    <linearGradient id="hl" x1="0" y1="0" x2="1" y2="0">
      <stop offset="0%" stop-color="#22E07B"/>
      <stop offset="100%" stop-color="#38BDF8"/>
    </linearGradient>
  </defs>
  <rect width="1200" height="630" fill="url(#glow)"/>
  <g stroke="#38BDF8" stroke-opacity=".06" stroke-width="1">
    <path d="M0 105h1200M0 210h1200M0 315h1200M0 420h1200M0 525h1200"/>
    <path d="M120 0v630M240 0v630M360 0v630M480 0v630M600 0v630M720 0v630M840 0v630M960 0v630M1080 0v630"/>
  </g>
  <g transform="translate(80,88) scale(2.2)">
    <rect x="2" y="2" width="36" height="36" rx="11" fill="#0F1A2E" stroke="#22E07B" stroke-width="1.5"/>
    <path d="M20 9l2.7 5.8 6.3.7-4.7 4.3 1.2 6.2L20 27.8 14.5 26.3 15.7 20.1 11 15.8l6.3-.7z" fill="#22E07B"/>
    <circle cx="20" cy="18.5" r="2.4" fill="#0F1A2E"/>
  </g>
  <text x="185" y="148" font-family="Orbitron" font-weight="700" font-size="52">
    <tspan fill="#F4F8FF">Stella</tspan><tspan fill="#22E07B">Tap</tspan><tspan fill="#93A4BE">.it</tspan>
  </text>
  <text x="82" y="300" font-family="Orbitron" font-weight="700" font-size="58" fill="#F4F8FF">Più recensioni Google</text>
  <text x="82" y="378" font-family="Orbitron" font-weight="700" font-size="58" fill="url(#hl)">con un tap</text>
  <text x="82" y="452" font-family="Orbitron" font-weight="500" font-size="24" fill="#93A4BE">Supporto NFC + QR per la tua cassa · Nessuna app · Da 25€</text>
  <g transform="translate(82,510)">
    <g fill="#FFC53D">
      <path transform="translate(0,0) scale(1.6)" d="M12 2l2.9 6.2 6.8.8-5 4.7 1.3 6.7L12 17.8 5.9 21l1.3-6.6-5-4.7 6.8-.8z"/>
      <path transform="translate(48,0) scale(1.6)" d="M12 2l2.9 6.2 6.8.8-5 4.7 1.3 6.7L12 17.8 5.9 21l1.3-6.6-5-4.7 6.8-.8z"/>
      <path transform="translate(96,0) scale(1.6)" d="M12 2l2.9 6.2 6.8.8-5 4.7 1.3 6.7L12 17.8 5.9 21l1.3-6.6-5-4.7 6.8-.8z"/>
      <path transform="translate(144,0) scale(1.6)" d="M12 2l2.9 6.2 6.8.8-5 4.7 1.3 6.7L12 17.8 5.9 21l1.3-6.6-5-4.7 6.8-.8z"/>
      <path transform="translate(192,0) scale(1.6)" d="M12 2l2.9 6.2 6.8.8-5 4.7 1.3 6.7L12 17.8 5.9 21l1.3-6.6-5-4.7 6.8-.8z"/>
    </g>
  </g>
</svg>
